# xmcd
#
# Track frame offsets: 
#        150
#        17782
#        34440
#        49739
#        74147
#        95689
#        108837
#        125008
#        145459
#        166050
#        190918
#        204088
#        222764
#        244496
#        259261
#
# Disc length: 3752 seconds
#
# Revision: 6
# Processed by: cddbd v1.4PL0 Copyright (c) Steve Scherf et al.
# Submitted via: ExactAudioCopy v0.90b4
#
DISCID=e70ea60f
DTITLE=Various Artist - New Age - Summer Day
DYEAR=2002
DGENRE=New Age
TTITLE0=Summer Breeze
TTITLE1=The Green Leaves Of Summer
TTITLE2=Wind
TTITLE3=Loving You
TTITLE4=I Lowe You
TTITLE5=Rhythm Of The Rain
TTITLE6=Gone The Rainbow
TTITLE7=Leaving You
TTITLE8=Her Face In Your Eyes
TTITLE9=Don't Say You Love Me
TTITLE10=If
TTITLE11=Summer Vacation
TTITLE12=None Of Your Business
TTITLE13=Take Me Home, Country Roads
TTITLE14=Phoenix
EXTD=YEAR: 2002
EXTT0=
EXTT1=
EXTT2=
EXTT3=
EXTT4=
EXTT5=
EXTT6=
EXTT7=
EXTT8=
EXTT9=
EXTT10=
EXTT11=
EXTT12=
EXTT13=
EXTT14=
PLAYORDER=
